PathFileType	4	(X/Y/Z)	/Users/itak/Documents/Research/Walk-IL/dataset/trc/00446_00167.trc
DataRate	CameraRate	NumFrames	NumMarkers	Units	OrigDataRate	OrigDataStartFrame	OrigNumFrames
100.000000	100.000000	4	53	mm	100.000000	238	477
Frame#	Time	RPSI			LPSI			L3			STRN			T10			C7			CLAV			RBAK			LBAK			LSHO			LUPA			LAEL			LAOL			LWTS			LWPS			LFRA			LIFD			LHPS			LHTS			RSHO			RUPA			RAEL			RAOL			RWTS			RWPS			RFRA			RIFD			RHTS			RHPS			RBHD			LFHD			RFHD			LBHD			LHIP			RHIP			RASI			LASI			LKNE			LTHI			LANK			LTIP			LTOE			LMT1			LMT5			LHEE			RKNE			RTHI			RANK			RTIP			RTOE			RMT1			RMT5			RHEE			
		X1	Y1	Z1	X2	Y2	Z2	X3	Y3	Z3	X4	Y4	Z4	X5	Y5	Z5	X6	Y6	Z6	X7	Y7	Z7	X8	Y8	Z8	X9	Y9	Z9	X10	Y10	Z10	X11	Y11	Z11	X12	Y12	Z12	X13	Y13	Z13	X14	Y14	Z14	X15	Y15	Z15	X16	Y16	Z16	X17	Y17	Z17	X18	Y18	Z18	X19	Y19	Z19	X20	Y20	Z20	X21	Y21	Z21	X22	Y22	Z22	X23	Y23	Z23	X24	Y24	Z24	X25	Y25	Z25	X26	Y26	Z26	X27	Y27	Z27	X28	Y28	Z28	X29	Y29	Z29	X30	Y30	Z30	X31	Y31	Z31	X32	Y32	Z32	X33	Y33	Z33	X34	Y34	Z34	X35	Y35	Z35	X36	Y36	Z36	X37	Y37	Z37	X38	Y38	Z38	X39	Y39	Z39	X40	Y40	Z40	X41	Y41	Z41	X42	Y42	Z42	X43	Y43	Z43	X44	Y44	Z44	X45	Y45	Z45	X46	Y46	Z46	X47	Y47	Z47	X48	Y48	Z48	X49	Y49	Z49	X50	Y50	Z50	X51	Y51	Z51	X52	Y52	Z52	X53	Y53	Z53	

239	2.38	-648.25048828125	975.8014526367188	-64.496337890625	-566.807373046875	965.2178344726562	-178.6609497070312	-589.2401123046875	1072.4052734375	-70.38074493408203	-298.9479064941406	1183.672119140625	81.01952362060547	-572.7049560546875	1191.06787109375	-44.77667236328125	-468.3971557617188	1418.385986328125	43.96489334106445	-307.4602355957031	1302.28466796875	84.28788757324219	-582.2723999023438	1309.760009765625	92.20816040039062	-454.8424682617188	1393.006713867188	-55.61546325683594	-323.4046936035156	1405.510620117188	-82.15013122558594	-323.3355407714844	1359.0908203125	-216.1795349121094	-400.4964599609375	1199.80029296875	-348.3954162597656	-493.8075561523438	1231.816528320312	-318.0662231445312	-449.4539794921875	987.6953125	-349.7533264160156	-478.9322814941406	999.9605102539062	-417.2287902832031	-420.8057861328125	1117.276123046875	-382.3932189941406	-524.6506958007812	839.7753295898438	-380.7186584472656	-508.5421142578125	922.4266357421875	-431.4021911621094	-468.01806640625	901.7299194335938	-374.4355773925781	-470.2893371582031	1362.586181640625	210.2283172607422	-518.0120239257812	1298.268798828125	265.9811401367188	-528.4791870117188	1025.317260742188	300.8565673828125	-567.9883422851562	986.673095703125	257.8290710449219	-326.0444030761719	964.3148193359375	231.737060546875	-355.2277526855469	893.1399536132812	275.973876953125	-487.047119140625	983.9979858398438	299.4280395507812	-203.9709320068359	872.864013671875	194.5956878662109	-240.8720245361328	913.2930908203125	223.2803497314453	-276.2359619140625	852.001220703125	253.7266693115234	-443.8853759765625	1590.422729492188	142.99560546875	-253.8845520019531	1608.3837890625	64.105224609375	-313.7323608398438	1616.05517578125	180.2692260742188	-376.6571044921875	1583.7744140625	-22.70806694030762	-385.872314453125	861.1737670898438	-189.9016876220703	-666.6758422851562	852.7327270507812	98.84381103515625	-539.8461303710938	864.8211669921875	119.6266632080078	-383.3291625976562	879.1759033203125	-69.85166931152344	-216.9907379150391	485.4297485351562	-60.00646209716797	-247.4596252441406	647.7877807617188	-95.11617279052734	-348.7049865722656	66.218017578125	-134.2484436035156	-244.8365020751953	324.230712890625	-89.78548431396484	-196.0439147949219	84.72455596923828	40.10705947875977	-273.42919921875	81.9371337890625	30.00823974609375	-219.0555419921875	72.17241668701172	-66.14815521240234	-422.62939453125	72.95212554931641	-120.2000579833984	-742.0931396484375	470.1445007324219	38.46527862548828	-668.2986450195312	711.62841796875	113.3710861206055	-1057.094360351562	191.2494964599609	-136.4405670166016	-841.37939453125	364.770263671875	2.241242170333862	-931.050537109375	45.15868377685547	-133.4614105224609	-936.318115234375	82.54841613769531	-178.1730499267578	-1014.76904296875	75.18659973144531	-104.2314682006836	-1056.36669921875	258.4519958496094	-183.7770385742188	
240	2.39	-626.8215942382812	978.554443359375	-50.28772735595703	-546.8422241210938	968.54541015625	-165.2084045410156	-568.815673828125	1075.94091796875	-58.7170295715332	-277.7789611816406	1188.190551757812	91.15169525146484	-552.2423095703125	1194.339233398438	-34.60924911499023	-447.7318115234375	1421.156005859375	51.98669815063477	-287.2217712402344	1306.81640625	92.80263519287109	-561.3802490234375	1313.401245117188	101.1028594970703	-434.54833984375	1394.501831054688	-47.79515075683594	-303.7267456054688	1406.787353515625	-75.12362670898438	-301.8942260742188	1356.442504882812	-208.5452880859375	-374.1608276367188	1191.514892578125	-336.9184875488281	-468.6568603515625	1221.180786132812	-308.5166931152344	-414.2527160644531	978.1625366210938	-331.4254455566406	-443.8381652832031	986.6482543945312	-399.3650817871094	-391.0662231445312	1107.221435546875	-368.2653503417969	-481.3185729980469	826.0288696289062	-357.1978454589844	-469.6236572265625	907.3642578125	-410.7947692871094	-428.385009765625	890.874755859375	-353.0732727050781	-449.4111938476562	1366.708984375	218.7677917480469	-497.5161437988281	1303.233642578125	274.8562316894531	-511.3234252929688	1028.379638671875	310.8498229980469	-552.4229736328125	991.8970336914062	267.6212463378906	-311.9659423828125	956.5488891601562	240.7694702148438	-345.1879577636719	887.7090454101562	285.3418273925781	-472.0469665527344	984.8379516601562	309.2113952636719	-197.2037963867188	856.3405151367188	203.5720825195312	-230.5587463378906	899.7024536132812	231.5269317626953	-269.6858825683594	841.5681762695312	262.7592468261719	-422.9627075195312	1593.657836914062	150.3134918212891	-232.7119293212891	1611.129516601562	71.91570281982422	-292.8287658691406	1618.899780273438	187.9260711669922	-355.3319091796875	1586.952270507812	-15.269362449646	-367.2081909179688	862.9906616210938	-178.3325500488281	-643.0172729492188	854.7774658203125	113.3416366577148	-516.3085327148438	868.6012573242188	132.1745300292969	-361.5487060546875	882.4144897460938	-58.6082649230957	-201.984130859375	482.0221557617188	-53.2911262512207	-231.2489929199219	644.5128784179688	-89.29126739501953	-321.5850830078125	55.66702270507812	-114.4102172851562	-225.2160186767578	319.2781982421875	-78.59244537353516	-168.0320434570312	84.49584197998047	58.93927383422852	-245.4800567626953	79.712890625	49.26474380493164	-191.5499114990234	66.81332397460938	-46.93863677978516	-395.7245483398438	61.46905136108398	-100.3371887207031	-711.41259765625	468.8621826171875	55.77052307128906	-641.530029296875	712.6934204101562	127.9425659179688	-1036.704345703125	209.9585113525391	-125.3291091918945	-814.34375	368.1235961914062	17.17613792419434	-920.2681884765625	49.74111175537109	-125.7165603637695	-923.1791381835938	93.80933380126953	-169.4215240478516	-1001.382507324219	89.433349609375	-95.92636871337891	-1032.99951171875	277.6657409667969	-171.4751281738281	
241	2.4	-605.7841186523438	979.7301635742188	-36.06362152099609	-527.2448120117188	970.1928100585938	-151.8291168212891	-548.5905151367188	1078.138549804688	-47.35920333862305	-256.9836730957031	1191.427856445312	101.3413543701172	-531.9296875	1196.345703125	-24.92960166931152	-427.1260375976562	1422.781494140625	59.72504043579102	-267.2391052246094	1310.087890625	101.2691497802734	-540.7288818359375	1315.900024414062	109.4016494750977	-414.2919311523438	1394.758666992188	-40.37082290649414	-284.0986633300781	1406.70068359375	-68.39395904541016	-280.3870544433594	1351.999145507812	-201.0280303955078	-346.8858337402344	1181.408325195312	-325.2131652832031	-442.6380615234375	1208.139038085938	-298.7947692871094	-376.8778686523438	967.3757934570312	-312.4572143554688	-406.5679016113281	971.8187866210938	-380.7017211914062	-359.9037170410156	1095.452026367188	-353.6629333496094	-434.5396423339844	811.2451782226562	-332.8771057128906	-427.8961791992188	891.0045776367188	-389.3035278320312	-385.9266052246094	879.1009521484375	-331.0316467285156	-429.0321655273438	1369.695068359375	227.0937194824219	-477.7044067382812	1307.079345703125	283.3841552734375	-495.5811767578125	1030.45849609375	320.6504821777344	-538.1689453125	996.3079223632812	277.1526489257812	-300.0268859863281	946.4255981445312	250.8352355957031	-337.8344116210938	880.55419921875	295.8378295898438	-458.825439453125	984.5509033203125	319.1455383300781	-193.5773162841797	836.83642578125	215.0178070068359	-223.1001586914062	883.3163452148438	241.6044769287109	-266.3506774902344	828.9898681640625	273.6613464355469	-402.2351684570312	1595.634155273438	157.4120483398438	-211.72509765625	1612.924682617188	79.61753845214844	-272.1897888183594	1620.714599609375	195.4377288818359	-334.1248168945312	1588.922729492188	-7.994875907897949	-348.8533935546875	863.06982421875	-167.0646362304688	-619.052734375	855.3004760742188	128.0817718505859	-492.7899475097656	871.1469116210938	144.6868591308594	-339.6018981933594	884.3555297851562	-47.59711074829102	-187.6555786132812	477.3495178222656	-46.55878448486328	-215.1897735595703	639.75341796875	-83.52322387695312	-299.9874267578125	47.12544631958008	-97.87729644775391	-208.1139526367188	313.92529296875	-68.64318084716797	-145.5047760009766	82.42962646484375	74.20249938964844	-222.9516143798828	76.81043243408203	65.06610107421875	-169.4948120117188	61.34360504150391	-31.36122512817383	-374.114990234375	52.56793975830078	-83.48957824707031	-678.6707153320312	465.8193054199219	74.31786346435547	-613.8402709960938	712.2320556640625	142.9562835693359	-1013.830627441406	229.9127044677734	-114.0811386108398	-785.24072265625	370.5518188476562	32.85242080688477	-907.0609741210938	57.2023811340332	-116.4587707519531	-907.5737915039062	107.0110855102539	-159.4435424804688	-985.3303833007812	106.1785583496094	-86.25919342041016	-1007.161315917969	297.5078430175781	-159.5224609375	
242	2.41	-585.1785888671875	979.0940551757812	-21.88925361633301	-508.0419921875	969.978515625	-138.5952758789062	-528.5714111328125	1078.7431640625	-36.3132438659668	-236.5881042480469	1193.245971679688	111.5400695800781	-511.7737121582031	1196.922241210938	-15.70709037780762	-406.6125793457031	1423.246215820312	67.21579742431641	-247.4909362792969	1311.956420898438	109.709098815918	-520.3192138671875	1317.228759765625	117.1949462890625	-394.1132507324219	1393.770141601562	-33.29673767089844	-264.53125	1405.2353515625	-61.88972854614258	-258.818359375	1345.844482421875	-193.5150146484375	-318.68798828125	1169.7255859375	-313.1743774414062	-415.711669921875	1192.9287109375	-288.7406005859375	-337.50830078125	955.761474609375	-292.7936706542969	-367.255859375	955.941162109375	-361.1667785644531	-327.3755493164062	1082.309448242188	-338.4953918457031	-384.6592102050781	796.0746459960938	-307.7306823730469	-383.5597229003906	873.9251098632812	-366.8747253417969	-340.9581298828125	866.9096069335938	-308.2689819335938	-409.0690307617188	1371.50390625	235.2432250976562	-458.4575500488281	1309.768310546875	291.6478576660156	-481.1620178222656	1031.685546875	330.2855834960938	-525.1680297851562	999.9843139648438	286.5340881347656	-290.3812866210938	934.4570922851562	261.8174133300781	-333.0696411132812	872.192138671875	307.3378601074219	-447.2736206054688	983.3903198242188	329.2142333984375	-193.1112976074219	815.4739990234375	228.6778106689453	-218.5928497314453	865.0240478515625	253.405517578125	-266.0453796386719	815.0802612304688	286.273681640625	-381.7194519042969	1596.3505859375	164.3003692626953	-190.9464569091797	1613.74658203125	87.1912841796875	-251.8250122070312	1621.512084960938	202.7888793945312	-313.0708618164062	1589.632934570312	-0.8764036893844604	-330.6945495605469	861.4560546875	-156.1640777587891	-594.7752075195312	854.179443359375	143.0346221923828	-469.2006225585938	872.2847900390625	157.0467529296875	-317.5475158691406	884.9141235351562	-36.93517684936523	-173.8547973632812	471.5813903808594	-39.66663360595703	-199.1417236328125	633.7123413085938	-77.55742645263672	-283.9173889160156	40.46891403198242	-84.79518890380859	-193.4476928710938	308.1786193847656	-59.84212493896484	-128.3773803710938	78.53362274169922	86.10440826416016	-205.8137969970703	73.11992645263672	77.48188018798828	-152.7889709472656	55.91831588745117	-19.4005298614502	-357.8659362792969	45.93087005615234	-69.85401916503906	-644.2752685546875	461.3948669433594	94.02769470214844	-585.3822631835938	710.3037719726562	158.4212188720703	-988.3036499023438	250.701904296875	-102.4523620605469	-754.2969360351562	372.3564453125	49.35269546508789	-891.3601684570312	67.43042755126953	-105.6902160644531	-889.337158203125	121.6642684936523	-148.2073364257812	-966.5017700195312	124.8084259033203	-75.22481536865234	-978.6065063476562	317.7398376464844	-147.5532379150391	
